<svg viewBox="0 0 512 512">
<path d="M206.16 209.105a5 5 0 0 1-5-5c0-22.74 18.505-41.24 41.25-41.24h72.49c3.509 0 6.8-1.364 9.269-3.84a13.048 13.048 0 0 0 3.851-9.29c0-7.234-5.885-13.12-13.119-13.12H188.04c-6.186 0-11.992-2.408-16.352-6.78a22.962 22.962 0 0 1-6.769-16.34c0-12.749 10.371-23.12 23.12-23.12h54.37c7.234 0 13.12-5.89 13.12-13.13a5 5 0 1 1 10 0c0 12.754-10.372 23.13-23.12 23.13h-54.37c-7.234 0-13.12 5.886-13.12 13.12 0 3.501 1.365 6.794 3.846 9.274a13 13 0 0 0 9.274 3.846H314.9c12.748 0 23.119 10.372 23.119 23.12a22.976 22.976 0 0 1-6.774 16.355c-4.353 4.367-10.159 6.774-16.345 6.774h-72.49c-17.231 0-31.25 14.014-31.25 31.24a5 5 0 0 1-5 5.001z" style="fill:#edab7a"/>
<path d="M79.31 147.735c10 0 18.12 8.12 18.12 18.13s-8.12 18.12-18.12 18.12c-10.01 0-18.13-8.11-18.13-18.12 0-10.01 8.12-18.13 18.13-18.13z" style="fill:#924b35"/><path d="M66.18 175.532c0-10.01 8.12-18.13 18.13-18.13a18.06 18.06 0 0 1 12.832 5.335c-1.485-8.518-8.899-15.002-17.832-15.002-10.01 0-18.13 8.12-18.13 18.13 0 4.992 2.021 9.511 5.287 12.788a18.13 18.13 0 0 1-.287-3.121z" style="fill:#843f2c"/>
<path d="M432.69 338.025c10.01 0 18.13 8.109 18.13 18.12 0 10.01-8.12 18.13-18.13 18.13-10.011 0-18.12-8.12-18.12-18.13s8.11-18.12 18.12-18.12z" style="fill:#fbb14f"/><path d="M419.57 365.896c0-10.011 8.109-18.12 18.12-18.12 5.026 0 9.573 2.046 12.858 5.35-1.442-8.569-8.88-15.1-17.858-15.1-10.011 0-18.12 8.109-18.12 18.12 0 4.987 2.015 9.504 5.273 12.782a18.26 18.26 0 0 1-.273-3.032z" style="fill:#eda248"/><path d="M387.39 102.435c10.011 0 18.12 8.11 18.12 18.12 0 10.01-8.109 18.12-18.12 18.12-10.01 0-18.12-8.11-18.12-18.12 0-10.01 8.11-18.12 18.12-18.12z" style="fill:#ffd15c"/><path d="M374.937 131.055c0-10.01 8.11-18.12 18.12-18.12 4.709 0 8.983 1.81 12.205 4.753-1.377-8.643-8.84-15.253-17.872-15.253-10.01 0-18.12 8.11-18.12 18.12 0 5.301 2.289 10.054 5.915 13.367a18.062 18.062 0 0 1-.248-2.867z" style="fill:#fbb14f"/><path style="fill:#ffc592" d="M367.14 202.105v45.31H131.55v-45.31h74.61z"/><path style="fill:#edab7a" d="M142.55 212.438h224.59v-10.333H131.55v45.31h11z"/><path d="M131.55 247.415h235.59c0 79.53-53.18 144.98-117.8 144.98s-117.79-65.45-117.79-144.98z" style="fill:#924b35"/><path d="M145.217 259.081h221.534c.254-3.851.389-7.74.389-11.666H131.55c0 52.789 23.431 99.367 58.082 124.727-27.002-26.663-44.415-67.554-44.415-113.061z" style="fill:#843f2c"/><path d="M398.98 390.705c4.029 3.28 6.529 7.8 6.529 12.811 0 10.01-9.99 18.119-22.31 18.119h-63.71c-4.65 0-9.23.801-13.55 2.33a40.783 40.783 0 0 0-11.98 6.73 40.418 40.418 0 0 1-25.52 9.06h-38.19c-4.65 0-9.23-.8-13.54-2.33a40.421 40.421 0 0 1-11.98-6.729 40.504 40.504 0 0 0-25.529-9.061h-63.71c-6.16 0-11.74-2.029-15.771-5.31-4.04-3.28-6.54-7.8-6.54-12.81 0-10.011 9.99-18.12 22.311-18.12H383.2c6.16.001 11.74 2.03 15.78 5.31z" style="fill:#ffc592"/><path d="M104.18 414.849c0-10.011 9.99-18.12 22.311-18.12H394.2c3.826 0 7.426.785 10.574 2.164-1.019-3.146-3.051-5.954-5.794-8.188-4.04-3.28-9.62-5.31-15.78-5.31H115.49c-12.32 0-22.311 8.109-22.311 18.12 0 5.01 2.5 9.529 6.54 12.81a22.588 22.588 0 0 0 5.195 3.145 14.972 14.972 0 0 1-.734-4.621z" style="fill:#edab7a"/><path d="M333.955 352.085a5 5 0 0 1-.366-9.986c.304-.024 31.939-2.894 52.701-34.028 12.711-19.068 10.708-25.751 9.257-27.738-4.021-5.508-20.818-3.811-30.903-.93a5 5 0 0 1-2.748-9.616c3.246-.928 32-8.677 41.729 4.648 6.016 8.241 3.067 21.058-9.014 39.183-23.564 35.336-58.791 38.343-60.279 38.453-.127.01-.253.014-.377.014z" style="fill:#924b35"/></svg>
